#!OML:ASF F:\VICON\USERDATA\INSTALL\rory3\rory3.ASF
:FULLY-SPECIFIED
:DEGREES
31
root 1.10862 17.8184 -16.9992 6.21293 -2.97215 0.352051
lowerback 5.4191 -0.619921 -1.98625
upperback -0.450226 -0.886476 2.03651
thorax -3.44301 -0.385647 3.29544
lowerneck -17.1498 -5.48057 -10.7071
upperneck 17.1096 -6.25426 7.30863
head 8.74806 -2.90848 3.43962
rclavicle 1.73937e-015 -1.39149e-014
rhumerus -31.0724 -5.80512 -82.1979
rradius 33.2927
rwrist 3.59132
rhand -9.75942 15.4836
rfingers 7.12502
rthumb 16.2153 -13.8582
lclavicle 1.73937e-015 -1.39149e-014
lhumerus -31.1951 5.38397 85.0756
lradius 31.9482
lwrist -8.95261
lhand -14.8367 22.4451
lfingers 7.12502
lthumb 11.3222 52.1195
rfemur -10.9437 5.93588 20.8966
rtibia 21.223
rfoot -10.9012 -9.49048
rtoes 2.35789
lfemur -11.2768 -1.59589 -21.6002
ltibia 20.7328
lfoot -11.8918 6.8048
ltoes 2.28627
32
root 1.1088 17.8165 -17.0005 6.23535 -3.10391 0.356699
lowerback 5.40719 -0.557736 -2.02617
upperback -0.486632 -0.806116 2.0279
thorax -3.47936 -0.343935 3.30282
lowerneck -16.9459 -5.5216 -10.6783
upperneck 17.0046 -6.32436 7.25547
head 8.68015 -2.94869 3.40897
rclavicle 1.02374e-014 4.37326e-015
rhumerus -31.1789 -5.85966 -82.1766
rradius 33.2995
rwrist 3.60644
rhand -9.65972 15.6522
rfingers 7.12502
rthumb 16.3113 -13.6818
lclavicle 1.02374e-014 4.37326e-015
lhumerus -31.2677 5.24726 85.117
lradius 31.9407
lwrist -8.62211
lhand -15.2479 22.2119
lfingers 7.12502
lthumb 10.9256 51.9076
rfemur -10.9802 5.99274 20.8792
rtibia 21.2316
rfoot -10.8574 -9.40633
rtoes 2.5225
lfemur -11.2969 -1.66256 -21.604
ltibia 20.7837
lfoot -11.9743 6.92094
ltoes 2.63992
33
root 1.10815 17.814 -17.002 6.27212 -3.17618 0.274613
lowerback 5.306 -0.554746 -1.98815
upperback -0.407127 -0.797525 2.06981
thorax -3.34063 -0.343227 3.32135
lowerneck -17.0422 -5.51538 -10.8124
upperneck 16.9742 -6.29851 7.3981
head 8.694 -2.9286 3.48203
rclavicle 4.07509e-015 -2.74323e-014
rhumerus -31.0768 -5.70986 -82.2232
rradius 33.3812
rwrist 3.55021
rhand -9.43136 15.8213
rfingers 7.12502
rthumb 16.5312 -13.4945
lclavicle 4.07509e-015 -2.74323e-014
lhumerus -31.1374 5.30171 85.1464
lradius 31.8887
lwrist -8.28126
lhand -15.6063 22.2663
lfingers 7.12502
lthumb 10.5799 51.98
rfemur -11.0423 5.96091 20.9699
rtibia 21.2505
rfoot -10.8253 -9.30063
rtoes 2.45861
lfemur -11.3068 -1.7073 -21.5053
ltibia 20.8183
lfoot -12.0716 7.00581
ltoes 3.00608
34
root 1.1092 17.8139 -17.0045 6.24105 -3.14455 0.205304
lowerback 5.27844 -0.579486 -1.90387
upperback -0.329804 -0.824998 2.07992
thorax -3.2441 -0.360782 3.28486
lowerneck -17.1096 -5.479 -10.8501
upperneck 16.9715 -6.24944 7.48693
head 8.70446 -2.89754 3.52475
rclavicle 1.85864e-014 1.78906e-014
rhumerus -30.9939 -5.64433 -82.2771
rradius 33.4664
rwrist 3.41491
rhand -9.32697 15.8253
rfingers 7.12502
rthumb 16.6317 -13.4821
lclavicle 1.85864e-014 1.78906e-014
lhumerus -30.9616 5.46938 85.0725
lradius 31.7393
lwrist -8.4393
lhand -16.9998 20.8015
lfingers 7.12502
lthumb 9.23554 50.5792
rfemur -11.0323 5.99082 21.0512
rtibia 21.2737
rfoot -10.8569 -9.36687
rtoes 2.53971
lfemur -11.2788 -1.67809 -21.4302
ltibia 20.8632
lfoot -12.1414 6.95851
ltoes 3.15876
35
root 1.10979 17.8167 -17.0052 6.21255 -3.0961 0.258918
lowerback 5.29906 -0.572712 -1.91957
upperback -0.294977 -0.819494 2.01384
thorax -3.22074 -0.359073 3.22458
lowerneck -17.2702 -5.50614 -10.6881
upperneck 17.0636 -6.30232 7.41792
head 8.76156 -2.91571 3.4656
rclavicle 1.73937e-014 2.3059e-014
rhumerus -30.9524 -5.84169 -82.3255
rradius 33.4505
rwrist 3.46118
rhand -9.31027 15.8666
rfingers 7.12502
rthumb 16.6478 -13.4394
lclavicle 1.73937e-014 2.3059e-014
lhumerus -30.8699 5.43988 84.9772
lradius 31.6928
lwrist -8.59322
lhand -18.4064 18.316
lfingers 7.12502
lthumb 7.87815 48.1492
rfemur -11.0131 6.05674 20.9897
rtibia 21.2945
rfoot -10.8877 -9.45516
rtoes 2.62502
lfemur -11.294 -1.69658 -21.4887
ltibia 20.8991
lfoot -12.1337 6.96092
ltoes 2.94393
36
root 1.10979 17.815 -17.0077 6.15653 -3.12725 0.277764
lowerback 5.40402 -0.545347 -1.93813
upperback -0.282599 -0.786425 1.98179
thorax -3.26946 -0.341914 3.20084
lowerneck -17.3756 -5.51655 -10.6348
upperneck 17.1821 -6.31873 7.38537
head 8.81936 -2.92151 3.44283
rclavicle 1.56046e-014 1.11319e-014
rhumerus -30.9484 -5.98666 -82.3372
rradius 33.4447
rwrist 3.54176
rhand -9.37516 15.9226
rfingers 7.12502
rthumb 16.5853 -13.3887
lclavicle 1.56046e-014 1.11319e-014
lhumerus -30.884 5.3143 84.972
lradius 31.7424
lwrist -8.43077
lhand -16.1879 18.5326
lfingers 7.12502
lthumb 10.0188 48.2741
rfemur -10.9751 6.15837 20.9702
rtibia 21.3155
rfoot -10.9176 -9.52044
rtoes 3.05021
lfemur -11.2711 -1.63778 -21.5127
ltibia 20.8983
lfoot -12.0662 6.92464
ltoes 2.85644
37
root 1.111 17.8141 -17.0091 6.12626 -3.16162 0.276404
lowerback 5.50793 -0.543199 -1.93974
upperback -0.320672 -0.784574 1.98298
thorax -3.3674 -0.338961 3.20511
lowerneck -17.3514 -5.46122 -10.628
upperneck 17.2241 -6.24265 7.35684
head 8.82064 -2.88912 3.44321
rclavicle 3.52843e-015 3.18055e-015
rhumerus -31.0019 -5.9479 -82.3275
rradius 33.4105
rwrist 3.5882
rhand -9.53948 16.1898
rfingers 7.12502
rthumb 16.4271 -13.1346
lclavicle 3.52843e-015 3.18055e-015
lhumerus -30.9192 5.27174 84.994
lradius 31.7023
lwrist -8.26666
lhand -16.4972 18.6902
lfingers 7.12502
lthumb 9.72043 48.4459
rfemur -10.9737 6.041 20.9753
rtibia 21.3484
rfoot -10.9248 -9.41326
rtoes 2.75357
lfemur -11.2274 -1.68804 -21.5208
ltibia 20.8831
lfoot -11.9869 6.97195
ltoes 3.32053
38
root 1.11293 17.8144 -17.009 6.12854 -3.15872 0.312218
lowerback 5.5999 -0.545556 -1.97379
upperback -0.38867 -0.790495 1.98806
thorax -3.48866 -0.33851 3.23261
lowerneck -17.3153 -5.46629 -10.6697
upperneck 17.243 -6.23943 7.33799
head 8.82122 -2.89322 3.44457
rclavicle 8.79622e-015 -1.23246e-014
rhumerus -31.0799 -5.89052 -82.2932
rradius 33.393
rwrist 3.64653
rhand -9.52501 16.0813
rfingers 7.12502
rthumb 16.441 -13.242
lclavicle 8.79622e-015 -1.23246e-014
lhumerus -31.005 5.31963 84.9756
lradius 31.6761
lwrist -8.49616
lhand -15.8054 19.7906
lfingers 7.12502
lthumb 10.3878 49.514
rfemur -11.0024 5.99706 20.9264
rtibia 21.3934
rfoot -10.9061 -9.3963
rtoes 2.64447
lfemur -11.2365 -1.72148 -21.5686
ltibia 20.8876
lfoot -11.9821 6.8945
ltoes 3.59992
39
root 1.11272 17.8133 -17.0091 6.10989 -3.08585 0.320342
lowerback 5.60926 -0.570904 -1.97324
upperback -0.380201 -0.824407 1.98823
thorax -3.48278 -0.355591 3.23536
lowerneck -17.3595 -5.47013 -10.6719
upperneck 17.2802 -6.23605 7.31417
head 8.84078 -2.89346 3.43682
rclavicle -1.57537e-014 2.38542e-014
rhumerus -31.039 -5.80615 -82.3417
rradius 33.4158
rwrist 3.61726
rhand -9.46343 15.7817
rfingers 7.12502
rthumb 16.5003 -13.5367
lclavicle -1.57537e-014 2.38542e-014
lhumerus -30.9931 5.40884 84.923
lradius 31.6575
lwrist -8.71229
lhand -18.8197 17.2069
lfingers 7.12502
lthumb 7.47922 47.0547
rfemur -10.9802 6.0181 20.9243
rtibia 21.4235
rfoot -10.9181 -9.45042
rtoes 2.76905
lfemur -11.2298 -1.64517 -21.5701
ltibia 20.8888
lfoot -11.9538 6.72922
ltoes 3.46698
40
root 1.1137 17.8116 -17.0089 6.099 -3.05127 0.319803
lowerback 5.52524 -0.590793 -1.94654
upperback -0.345815 -0.84903 1.96899
thorax -3.39878 -0.370255 3.20032
lowerneck -17.3681 -5.45728 -10.6232
upperneck 17.3061 -6.22491 7.28275
head 8.8473 -2.8882 3.41964
rclavicle -1.1281e-014 -1.63003e-014
rhumerus -30.9832 -5.79152 -82.3916
rradius 33.4283
rwrist 3.6249
rhand -9.58433 15.7349
rfingers 7.12502
rthumb 16.3839 -13.5932
lclavicle -1.1281e-014 -1.63003e-014
lhumerus -30.9517 5.42462 84.8613
lradius 31.612
lwrist -8.69499
lhand -16.1659 17.6825
lfingers 7.12502
lthumb 10.0401 47.423
rfemur -10.9487 5.95737 20.9323
rtibia 21.426
rfoot -10.9517 -9.43423
rtoes 2.47973
lfemur -11.2052 -1.57908 -21.576
ltibia 20.8728
lfoot -11.901 6.65106
ltoes 3.30169
41
root 1.11364 17.8107 -17.008 6.12362 -3.13719 0.276254
lowerback 5.48293 -0.590701 -1.96052
upperback -0.393522 -0.847554 2.01542
thorax -3.42364 -0.367918 3.25623
lowerneck -17.166 -5.44561 -10.6903
upperneck 17.1966 -6.20399 7.26679
head 8.77366 -2.88824 3.42989
rclavicle 1.63997e-015 -1.70955e-014
rhumerus -31.0567 -5.69107 -82.3604
rradius 33.3572
rwrist 3.64078
rhand -9.67691 15.8536
rfingers 7.12502
rthumb 16.2948 -13.4817
lclavicle 1.63997e-015 -1.70955e-014
lhumerus -31.1075 5.49061 84.852
lradius 31.6685
lwrist -8.6333
lhand -18.909 16.2762
lfingers 7.12502
lthumb 7.39296 46.127
rfemur -10.9756 6.04145 20.9688
rtibia 21.408
rfoot -10.9681 -9.45547
rtoes 2.22557
lfemur -11.2095 -1.6255 -21.5352
ltibia 20.8624
lfoot -11.9119 6.8327
ltoes 3.03108
42
root 1.11416 17.813 -17.0094 6.12291 -3.08786 0.277151
lowerback 5.56614 -0.631419 -2.00875
upperback -0.455169 -0.903871 2.06858
thorax -3.52888 -0.39212 3.34583
lowerneck -17.0801 -5.41835 -10.7154
upperneck 17.1239 -6.14462 7.16985
head 8.72551 -2.8733 3.40916
rclavicle -5.96354e-016 -1.55052e-014
rhumerus -31.1673 -5.57618 -82.3235
rradius 33.3693
rwrist 3.69891
rhand -9.75626 15.6376
rfingers 7.12502
rthumb 16.2184 -13.704
lclavicle -5.96354e-016 -1.55052e-014
lhumerus -31.2157 5.56059 84.8912
lradius 31.7231
lwrist -8.51159
lhand -15.8784 18.9957
lfingers 7.12502
lthumb 10.3175 48.7226
rfemur -10.9621 6.04844 20.9707
rtibia 21.3879
rfoot -10.9341 -9.52375
rtoes 2.39516
lfemur -11.2241 -1.76788 -21.5316
ltibia 20.8557
lfoot -11.9538 7.01633
ltoes 2.71237
